<svg width="50" height="50" viewBox="0 0 50 50" fill="none" xmlns="http://www.w3.org/2000/svg">
<path d="M46.954 13.0348H26.8999C26.2808 12.9343 25.6449 12.8843 25.0008 12.8843C18.3077 12.8843 12.8863 18.3057 12.8863 24.9988C12.8863 27.5169 13.6477 29.8511 14.9612 31.7921L1.03125 17.8619C4.11004 7.52972 13.6727 0 25.0008 0C30.0875 0 34.8144 1.52274 38.7634 4.13295C41.5828 5.99858 44.0007 8.40819 45.858 11.2276C46.2512 11.8132 46.6109 12.4156 46.954 13.0348Z" fill="#D24441"/>
<path d="M31.792 35.0386L17.862 48.9685C15.8876 48.3829 14.0136 47.5546 12.2734 46.517C8.65068 44.3753 5.6221 41.3466 3.48037 37.7242C1.26326 33.9928 0 29.6506 0 24.999C0 22.5224 0.359786 20.1298 1.02906 17.8623L14.959 31.7924C17.1342 35.0051 20.8237 37.1216 24.9985 37.1216C27.5168 37.1216 29.851 36.3519 31.792 35.0386Z" fill="#4CB566"/>
<path d="M26.8938 13.0322C32.685 13.9429 37.1148 18.9543 37.1148 25.0014C37.1148 29.1773 35.0023 32.8594 31.788 35.0385L17.8594 48.9673C20.1212 49.6399 22.5165 50.0028 24.9968 50.0028C38.8047 50.0028 49.9982 38.8093 49.9982 25.0014C49.9982 20.6652 48.8937 16.587 46.9516 13.0322H26.8938Z" fill="#D5CB44"/>
<path d="M26.8964 13.0353C26.2773 12.9348 25.6414 12.8848 24.9973 12.8848C18.3042 12.8848 12.8828 18.3062 12.8828 24.9992C12.8828 27.5173 13.6442 29.8515 14.9577 31.7926C17.133 35.0053 20.8225 37.1218 24.9973 37.1218C27.5155 37.1218 29.8497 36.3521 31.7907 35.0388C35.0034 32.8634 37.1117 29.1738 37.1117 24.9992C37.1116 18.9585 32.6858 13.947 26.8964 13.0353ZM24.9973 34.821C19.5843 34.821 15.1751 30.4205 15.1751 24.9991C15.1751 19.5859 19.5842 15.1769 24.9973 15.1769C30.4103 15.1769 34.8193 19.5859 34.8193 24.9991C34.8193 30.4204 30.4102 34.821 24.9973 34.821Z" fill="white"/>
<path d="M15.1797 25.0016C15.1797 30.4174 19.5859 34.8236 25.0016 34.8236C30.4174 34.8236 34.8236 30.4174 34.8236 25.0016C34.8236 19.5859 30.4174 15.1797 25.0016 15.1797C19.5859 15.1797 15.1797 19.5859 15.1797 25.0016Z" fill="#5991CD"/>
<path opacity="0.06" d="M46.9469 13.0318C46.6042 12.4137 46.245 11.812 45.8524 11.2272C44.925 9.81948 43.8576 8.51384 42.6705 7.32715L33.56 16.4375C35.7528 18.63 37.1132 21.655 37.1132 25.0009C37.1132 27.6732 36.2451 30.1408 34.7798 32.1442C36.2432 30.1399 37.1096 27.6695 37.1096 24.9983C37.1096 21.6554 35.75 18.6316 33.5582 16.4393L31.9382 18.0595C33.7158 19.8381 34.8173 22.2926 34.8173 24.9983C34.8173 25.3372 34.8 25.6719 34.7664 26.0019C34.7998 25.6729 34.8171 25.3389 34.8171 25.0011C34.8171 22.2937 33.7158 19.8383 31.9376 18.0599L7.32031 42.6773C8.79745 44.154 10.4596 45.446 12.2699 46.5163C14.0101 47.5539 15.8842 48.3821 17.8586 48.9678L17.8591 48.9674C20.1206 49.6396 22.5153 50.0025 24.9951 50.0025C38.803 50.0025 49.9965 38.8089 49.9965 25.001C49.9965 20.6648 48.892 16.5867 46.9499 13.0319H46.9469V13.0318Z" fill="#040000"/>
</svg>
