<svg width="361" height="479" viewBox="0 0 361 479" fill="none" xmlns="http://www.w3.org/2000/svg">
<path d="M141.75 478.5C144 478.5 361 475 361 181.25C361.113 148.294 352.201 115.937 335.231 87.6866C318.261 59.4361 293.88 36.3708 264.733 20.9918C235.586 5.61279 202.784 -1.49288 169.886 0.445293C136.987 2.38347 105.247 13.2915 78.1071 31.9866C50.9673 50.6816 29.4637 76.4502 15.9281 106.498C2.39259 136.546 -2.6583 169.725 1.32318 202.44C5.30467 235.154 18.1666 266.154 38.5141 292.078C58.8617 318.002 85.9183 337.86 116.75 349.5V453.5C116.75 460.13 119.384 466.489 124.072 471.177C128.761 475.866 135.12 478.5 141.75 478.5ZM50 181.25C50 146.639 63.7491 113.446 88.2226 88.9724C112.696 64.4989 145.889 50.7498 180.5 50.7498C215.111 50.7498 248.304 64.4989 272.777 88.9724C297.251 113.446 311 146.639 311 181.25C311 368.75 214 414 166.75 425V331.25C166.93 325.573 165.171 320.003 161.763 315.459C158.354 310.915 153.501 307.667 148 306.25C120.167 299.138 95.4656 283.024 77.7412 260.417C60.0169 237.809 50.2637 209.976 50 181.25Z" fill="#C10000"/>
</svg>
