<svg width="51" height="82" viewBox="0 0 51 82" fill="none" xmlns="http://www.w3.org/2000/svg">
<path d="M9.75491 18.1817C14.7756 18.1817 18.8458 14.1116 18.8458 9.09085C18.8458 4.07011 14.7756 0 9.75491 0C4.73417 0 0.664062 4.07011 0.664062 9.09085C0.664062 14.1116 4.73417 18.1817 9.75491 18.1817Z" fill="black"/>
<path d="M41.5752 18.1817C46.5961 18.1817 50.6661 14.1116 50.6661 9.09085C50.6661 4.07011 46.5961 0 41.5752 0C36.5543 0 32.4844 4.07011 32.4844 9.09085C32.4844 14.1116 36.5543 18.1817 41.5752 18.1817Z" fill="black"/>
<path d="M18.8458 40.9092C18.8458 45.9301 14.7756 50 9.75491 50C4.73417 50 0.664062 45.9301 0.664062 40.9092C0.664062 35.8883 4.73417 31.8184 9.75491 31.8184C14.7756 31.8184 18.8458 35.8883 18.8458 40.9092Z" fill="black"/>
<path d="M41.5752 50C46.5961 50 50.6661 45.9301 50.6661 40.9092C50.6661 35.8883 46.5961 31.8184 41.5752 31.8184C36.5543 31.8184 32.4844 35.8883 32.4844 40.9092C32.4844 45.9301 36.5543 50 41.5752 50Z" fill="black"/>
<path d="M18.8458 72.7266C18.8458 77.7475 14.7756 81.8174 9.75491 81.8174C4.73417 81.8174 0.664062 77.7475 0.664062 72.7266C0.664062 67.7057 4.73417 63.6357 9.75491 63.6357C14.7756 63.6357 18.8458 67.7057 18.8458 72.7266Z" fill="black"/>
<path d="M41.5752 81.8174C46.5961 81.8174 50.6661 77.7475 50.6661 72.7266C50.6661 67.7057 46.5961 63.6357 41.5752 63.6357C36.5543 63.6357 32.4844 67.7057 32.4844 72.7266C32.4844 77.7475 36.5543 81.8174 41.5752 81.8174Z" fill="black"/>
</svg>
