<?xml version="1.0" standalone="no"?>
<!DOCTYPE svg PUBLIC "-//W3C//DTD SVG 20010904//EN"
 "http://www.w3.org/TR/2001/REC-SVG-20010904/DTD/svg10.dtd">
<svg version="1.0" xmlns="http://www.w3.org/2000/svg"
 width="222.000000pt" height="227.000000pt" viewBox="0 0 222.000000 227.000000"
 preserveAspectRatio="xMidYMid meet">
<metadata>
Created by potrace 1.16, written by Peter Selinger 2001-2019
</metadata>
<g transform="translate(0.000000,227.000000) scale(0.100000,-0.100000)"
fill="#ffffff" stroke="none">
<path d="M938 2255 c-461 -72 -836 -450 -919 -925 -17 -96 -17 -294 0 -390 50
-287 208 -546 441 -722 81 -62 261 -151 360 -178 125 -34 273 -46 398 -32 59
7 141 21 182 32 99 27 279 116 360 178 233 176 391 435 441 722 17 96 17 294
0 390 -106 608 -665 1018 -1263 925z m318 -56 c332 -46 633 -267 791 -579 181
-357 142 -803 -98 -1131 -59 -80 -184 -201 -259 -250 -65 -43 -180 -101 -233
-119 -32 -10 -41 -9 -62 4 l-25 16 0 189 c0 195 -10 262 -45 301 -20 22 -12
40 18 40 13 0 50 7 82 15 196 51 306 167 340 361 17 97 19 166 4 236 -12 59
-51 142 -80 174 -16 17 -17 26 -9 54 22 75 6 221 -26 246 -29 23 -166 -24
-254 -86 -24 -17 -30 -17 -90 -2 -43 10 -110 16 -200 16 -90 0 -157 -6 -200
-16 -61 -16 -65 -15 -91 3 -15 11 -61 35 -102 55 -58 27 -85 35 -118 32 -41
-3 -44 -5 -55 -43 -15 -50 -17 -159 -4 -205 8 -28 7 -37 -9 -54 -29 -32 -68
-115 -80 -174 -15 -70 -13 -139 4 -236 27 -155 110 -268 238 -326 54 -24 91
-34 195 -56 l23 -5 -19 -32 c-11 -18 -25 -51 -31 -74 -10 -37 -16 -44 -49 -53
-110 -30 -192 1 -262 100 -59 83 -113 115 -187 111 -37 -2 -27 -24 32 -75 40
-34 64 -66 89 -119 37 -76 78 -123 136 -153 27 -15 57 -19 133 -19 l97 0 0
-102 c0 -98 -1 -103 -25 -119 -29 -19 -60 -11 -170 44 -203 101 -373 269 -474
467 -189 368 -153 820 90 1145 235 314 605 472 985 419z"/>
</g>
</svg>
