<?xml version="1.0" encoding="UTF-8"?>
<!DOCTYPE svg PUBLIC "-//W3C//DTD SVG 1.1//EN" "http://www.w3.org/Graphics/SVG/1.1/DTD/svg11.dtd">
<svg xmlns="http://www.w3.org/2000/svg" version="1.1" width="48px" height="48px" style="shape-rendering:geometricPrecision; text-rendering:geometricPrecision; image-rendering:optimizeQuality; fill-rule:evenodd; clip-rule:evenodd" xmlns:xlink="http://www.w3.org/1999/xlink">
<g><path style="opacity:0.975" fill="#c52829" d="M 12.5,10.5 C 12.5,14.5 12.5,18.5 12.5,22.5C 9.41139,20.0751 6.07805,18.0751 2.5,16.5C 2.22288,13.5525 2.55621,10.7191 3.5,8C 7.1421,6.93023 10.1421,7.76356 12.5,10.5 Z"/></g>
<g><path style="opacity:0.968" fill="#f9bf2d" d="M 44.5,16.5 C 41.1667,18.5 37.8333,20.5 34.5,22.5C 34.5,18.5 34.5,14.5 34.5,10.5C 36.8579,7.76356 39.8579,6.93023 43.5,8C 44.4438,10.7191 44.7771,13.5525 44.5,16.5 Z"/></g>
<g><path style="opacity:0.969" fill="#e43834" d="M 12.5,10.5 C 16.4051,12.7031 20.2384,15.0365 24,17.5C 27.5979,15.2865 31.0979,12.9531 34.5,10.5C 34.5,14.5 34.5,18.5 34.5,22.5C 34.5,23.1667 34.5,23.8333 34.5,24.5C 30.9923,27.087 27.3256,29.4203 23.5,31.5C 19.6744,29.4203 16.0077,27.087 12.5,24.5C 12.5,23.8333 12.5,23.1667 12.5,22.5C 12.5,18.5 12.5,14.5 12.5,10.5 Z"/></g>
<g><path style="opacity:0.994" fill="#2586e2" d="M 2.5,16.5 C 6.07805,18.0751 9.41139,20.0751 12.5,22.5C 12.5,23.1667 12.5,23.8333 12.5,24.5C 12.5,29.5 12.5,34.5 12.5,39.5C 9.16667,39.5 5.83333,39.5 2.5,39.5C 2.5,31.8333 2.5,24.1667 2.5,16.5 Z"/></g>
<g><path style="opacity:0.998" fill="#4daf4f" d="M 44.5,16.5 C 44.5,24.1667 44.5,31.8333 44.5,39.5C 41.1667,39.5 37.8333,39.5 34.5,39.5C 34.5,34.5 34.5,29.5 34.5,24.5C 34.5,23.8333 34.5,23.1667 34.5,22.5C 37.8333,20.5 41.1667,18.5 44.5,16.5 Z"/></g>
</svg>
