<svg width="30" height="30" viewBox="0 0 50 50" fill="none" xmlns="http://www.w3.org/2000/svg">
<path d="M33.6732 6.12652C37.0088 2.77815 41.8875 2.70783 44.5885 5.41924C47.2944 8.13575 47.2216 13.0453 43.8839 16.396L38.2475 22.0542C37.5678 22.7367 37.5699 23.8411 38.2522 24.5208C38.9347 25.2005 40.039 25.1984 40.7188 24.5159L46.3552 18.8577C50.7998 14.3958 51.3579 7.27224 47.0598 2.95751C42.7565 -1.36233 35.6488 -0.799311 31.2019 3.66482L19.9291 14.9815C15.4845 19.4433 14.9265 26.567 19.2245 30.8816C19.9043 31.5641 21.0086 31.5662 21.6909 30.8865C22.3734 30.2067 22.3755 29.1024 21.6958 28.4199C18.9898 25.7035 19.0627 20.7938 22.4004 17.4432L33.6732 6.12652Z" fill="black"/>
<path d="M30.7785 19.1187C30.0988 18.4363 28.9944 18.4341 28.3119 19.1139C27.6296 19.7937 27.6275 20.898 28.3073 21.5803C31.0131 24.2969 30.9404 29.2063 27.6027 32.5571L16.3298 43.8738C12.9944 47.2222 8.11544 47.2926 5.41454 44.5812C2.7085 41.8646 2.7814 36.9549 6.1191 33.6042L11.7556 27.9459C12.4354 27.2634 12.4332 26.1593 11.7508 25.4794C11.0684 24.7996 9.96409 24.8017 9.28432 25.4842L3.64784 31.1425C-0.796777 35.6045 -1.35479 42.728 2.94325 47.0429C7.24643 51.3626 14.3542 50.7996 18.8011 46.3355L30.0739 35.0188C34.5185 30.557 35.0766 23.4334 30.7785 19.1187Z" fill="black"/>
</svg>
