<svg width="25" height="25" viewBox="0 0 25 25" fill="none" xmlns="http://www.w3.org/2000/svg">
<g clip-path="url(#clip0_2_56)">
<path d="M9.42418 5.68182C7.36064 5.68182 5.68182 7.36065 5.68182 9.42416C5.68182 9.71083 5.91422 9.94319 6.20083 9.94319C6.48748 9.94319 6.71983 9.71083 6.71983 9.42416C6.71983 7.93298 7.93298 6.71984 9.42418 6.71984C9.71084 6.71984 9.94319 6.48748 9.94319 6.20081C9.94319 5.91418 9.71084 5.68182 9.42418 5.68182Z" fill="#B8C5FA" stroke="black" stroke-width="0.00064"/>
<path d="M18.8567 15.7115C19.8683 14.1255 20.4545 12.2438 20.4545 10.2273C20.4545 4.58748 15.8671 0 10.2273 0C8.21071 0 6.32904 0.586228 4.74311 1.59782C3.4795 2.40343 2.40417 3.47875 1.59855 4.74235C0.586938 6.32834 0 8.21073 0 10.2273C0 15.8664 4.5882 20.4545 10.2273 20.4545C12.2438 20.4545 14.1262 19.8676 15.7122 18.856C16.9758 18.0504 18.0511 16.9751 18.8567 15.7115ZM13.5437 16.6875C12.5492 17.2004 11.4212 17.4902 10.2273 17.4902C6.22309 17.4902 2.96441 14.2315 2.96441 10.2273C2.96441 9.03338 3.2542 7.90542 3.76705 6.91087C4.46145 5.56353 5.56499 4.46075 6.91228 3.76707C7.90684 3.25421 9.03405 2.96444 10.2272 2.96444C14.2322 2.96444 17.4901 6.22235 17.4901 10.2273C17.4901 11.4205 17.2003 12.5477 16.6874 13.5423C15.9938 14.8896 14.891 15.9931 13.5437 16.6875Z" fill="#B8C5FA" stroke="black" stroke-width="0.00064"/>
<path d="M24.4281 21.6598L19.2402 16.4773C18.5017 17.5572 17.5556 18.5041 16.4773 19.2443L21.6651 24.4268C22.0467 24.809 22.5469 25 23.0463 25C23.5464 25 24.0465 24.809 24.4281 24.4268C25.1906 23.6625 25.1906 22.4241 24.4281 21.6598Z" fill="#A47F6A" stroke="black" stroke-width="0.00064"/>
</g>
<defs>
<clipPath id="clip0_2_56">
<rect width="25" height="25" fill="white"/>
</clipPath>
</defs>
</svg>
