<svg width="20px" height="20px" viewBox="0 0 25 25" fill="none" xmlns="http://www.w3.org/2000/svg">
<g clip-path="url(#clip0_2_56)">
<path d="M8.42896 5C6.34527 5 4.65005 6.69624 4.65005 8.78115C4.65005 9.0708 4.88472 9.30557 5.17413 9.30557C5.46358 9.30557 5.6982 9.0708 5.6982 8.78115C5.6982 7.27451 6.9232 6.04878 8.42896 6.04878C8.71841 6.04878 8.95303 5.81401 8.95303 5.52437C8.95303 5.23477 8.71841 5 8.42896 5Z" fill="#B8C5FA" stroke="black" stroke-width="0.00064"/>
<path d="M17.659 14.7222C18.6064 13.2361 19.1554 11.4729 19.1554 9.58335C19.1554 4.29863 14.8593 0 9.57769 0C7.68921 0 5.92705 0.549316 4.44185 1.49722C3.2585 2.2521 2.25146 3.25972 1.49702 4.44375C0.549658 5.92988 0 7.69375 0 9.58335C0 14.8674 4.29678 19.1667 9.57769 19.1667C11.4662 19.1667 13.229 18.6167 14.7143 17.6688C15.8976 16.9139 16.9046 15.9063 17.659 14.7222ZM12.6835 15.6368C11.7521 16.1174 10.6958 16.3889 9.57769 16.3889C5.82783 16.3889 2.77612 13.3355 2.77612 9.58335C2.77612 8.4646 3.04751 7.40767 3.52778 6.47573C4.17808 5.21323 5.21152 4.17988 6.47324 3.52988C7.40464 3.04932 8.46025 2.77778 9.57764 2.77778C13.3282 2.77778 16.3792 5.83057 16.3792 9.58335C16.3792 10.7014 16.1078 11.7577 15.6275 12.6896C14.978 13.9521 13.9452 14.9861 12.6835 15.6368Z" fill="#B8C5FA" stroke="black" stroke-width="0.00064"/>
<path d="M24.3904 21.4431L18.8611 15.9243C18.074 17.0743 17.0656 18.0826 15.9163 18.8708L21.4457 24.3896C21.8524 24.7965 22.3854 25 22.9177 25C23.4507 25 23.9838 24.7965 24.3905 24.3896C25.2032 23.5757 25.2032 22.2569 24.3904 21.4431Z" fill="#A47F6A" stroke="black" stroke-width="0.00064"/>
</g>
<defs>
<clipPath id="clip0_2_56">
<rect width="25" height="25" fill="white"/>
</clipPath>
</defs>
</svg>
