<svg width="361" height="479" viewBox="0 0 361 479" fill="#c10000" xmlns="http://www.w3.org/2000/svg">
<path d="M219.501 -7.24792e-05C217.251 -7.24792e-05 0.000654221 3.49991 0.000654221 297.25C-0.0946973 330.19 8.82582 362.528 25.7957 390.761C42.7656 418.994 67.1379 442.044 96.2719 457.415C125.406 472.787 158.191 479.892 191.074 477.962C223.958 476.033 255.687 465.141 282.823 446.468C309.959 427.794 331.468 402.051 345.019 372.027C358.57 342.003 363.647 308.844 359.699 276.141C355.751 243.438 342.93 212.439 322.624 186.502C302.317 160.565 275.301 140.68 244.501 129L244.501 24.9999C244.501 18.3695 241.867 12.0106 237.178 7.32224C232.49 2.63383 226.131 -7.24792e-05 219.501 -7.24792e-05ZM311.001 297.25C311.001 331.861 297.252 365.054 272.778 389.527C248.305 414.001 215.111 427.75 180.501 427.75C145.89 427.75 112.697 414.001 88.2232 389.527C63.7497 365.054 50.0007 331.861 50.0007 297.25C50.0007 109.75 147.251 64.4999 194.501 53.4999V147.25C194.321 152.927 196.08 158.496 199.488 163.041C202.896 167.585 207.75 170.833 213.251 172.25C241.037 179.409 265.683 195.543 283.358 218.146C301.034 240.749 310.751 268.557 311.001 297.25Z" fill="#C10000"/>
</svg>
