<svg width="1580" height="768" viewBox="0 0 1580 768" fill="none" xmlns="http://www.w3.org/2000/svg">
<path d="M1580 0L1527.33 32.1C1474.67 63 1369.33 129 1264 176.1C1158.67 225 1053.33 255 948 224.1C842.667 192 737.333 96 632 111.9C526.667 129 421.333 255 316 303.9C210.667 351 105.333 321 52.6667 303.9L1.90735e-05 288V768H52.6667C105.333 768 210.667 768 316 768C421.333 768 526.667 768 632 768C737.333 768 842.667 768 948 768C1053.33 768 1158.67 768 1264 768C1369.33 768 1474.67 768 1527.33 768H1580V0Z" fill="black"/>
</svg>
